<mxfile host="app.diagrams.net" modified="2023-05-23T12:10:22.609Z" agent="Mozilla/5.0 (X11; Linux x86_64; rv:109.0) Gecko/20100101 Firefox/111.0" etag="aer96m0-KlKjJt3Zp2JX" version="21.3.2" type="device">
  <diagram name="Page-1" id="NnesV5St42bMwWYuN8ip">
    <mxGraphModel dx="1049" dy="419" grid="1" gridSize="10" guides="1" tooltips="1" connect="1" arrows="1" fold="1" page="1" pageScale="1" pageWidth="850" pageHeight="1100" math="0" shadow="0">
      <root>
        <mxCell id="0" />
        <mxCell id="1" parent="0" />
        <mxCell id="wVc57-GBdDfzJeNBVChu-3" value="" style="rounded=0;whiteSpace=wrap;html=1;fillColor=#ffe6cc;strokeColor=#d79b00;" vertex="1" parent="1">
          <mxGeometry x="160" y="650" width="120" height="60" as="geometry" />
        </mxCell>
        <mxCell id="wVc57-GBdDfzJeNBVChu-4" value="" style="rounded=0;whiteSpace=wrap;html=1;fillColor=#d5e8d4;strokeColor=#82b366;" vertex="1" parent="1">
          <mxGeometry x="162" y="660" width="23" height="40" as="geometry" />
        </mxCell>
        <mxCell id="wVc57-GBdDfzJeNBVChu-5" value="&lt;font style=&quot;font-size: 36px;&quot; face=&quot;Verdana&quot;&gt;00001&lt;/font&gt;" style="text;html=1;strokeColor=default;fillColor=none;align=left;verticalAlign=middle;whiteSpace=wrap;rounded=0;" vertex="1" parent="1">
          <mxGeometry x="160" y="650" width="120" height="60" as="geometry" />
        </mxCell>
        <mxCell id="wVc57-GBdDfzJeNBVChu-6" value="" style="rounded=1;whiteSpace=wrap;html=1;fillColor=#e1d5e7;strokeColor=#9673a6;glass=0;shadow=0;" vertex="1" parent="1">
          <mxGeometry x="602.5" y="650" width="110" height="60" as="geometry" />
        </mxCell>
        <mxCell id="wVc57-GBdDfzJeNBVChu-7" value="&lt;font style=&quot;font-size: 36px;&quot; face=&quot;Verdana&quot;&gt;&quot;abc&quot;&lt;/font&gt;" style="text;html=1;strokeColor=none;fillColor=none;align=center;verticalAlign=middle;whiteSpace=wrap;rounded=0;fontFamily=Helvetica;" vertex="1" parent="1">
          <mxGeometry x="602.5" y="655" width="112.5" height="45" as="geometry" />
        </mxCell>
        <mxCell id="wVc57-GBdDfzJeNBVChu-8" value="&lt;font style=&quot;font-size: 24px;&quot; face=&quot;Verdana&quot; color=&quot;#009900&quot;&gt;nucleotide/bit&lt;br&gt;&lt;/font&gt;" style="text;html=1;strokeColor=none;fillColor=none;align=center;verticalAlign=middle;whiteSpace=wrap;rounded=0;" vertex="1" parent="1">
          <mxGeometry x="65" y="560" width="215" height="30" as="geometry" />
        </mxCell>
        <mxCell id="wVc57-GBdDfzJeNBVChu-9" value="&lt;font style=&quot;font-size: 24px;&quot; face=&quot;Verdana&quot; color=&quot;#cc6600&quot;&gt;gene&lt;/font&gt;" style="text;html=1;strokeColor=none;fillColor=none;align=center;verticalAlign=middle;whiteSpace=wrap;rounded=0;" vertex="1" parent="1">
          <mxGeometry x="182.5" y="600" width="75" height="20" as="geometry" />
        </mxCell>
        <mxCell id="wVc57-GBdDfzJeNBVChu-10" value="" style="endArrow=classic;html=1;rounded=0;exitX=0.5;exitY=1;exitDx=0;exitDy=0;strokeColor=#009900;entryX=0.5;entryY=0;entryDx=0;entryDy=0;" edge="1" parent="1" source="wVc57-GBdDfzJeNBVChu-8" target="wVc57-GBdDfzJeNBVChu-4">
          <mxGeometry width="50" height="50" relative="1" as="geometry">
            <mxPoint x="230" y="890" as="sourcePoint" />
            <mxPoint x="185" y="640" as="targetPoint" />
          </mxGeometry>
        </mxCell>
        <mxCell id="wVc57-GBdDfzJeNBVChu-11" value="" style="endArrow=classic;html=1;rounded=0;strokeColor=#CC6600;exitX=0.5;exitY=1;exitDx=0;exitDy=0;entryX=0.5;entryY=0;entryDx=0;entryDy=0;" edge="1" parent="1" source="wVc57-GBdDfzJeNBVChu-9" target="wVc57-GBdDfzJeNBVChu-5">
          <mxGeometry width="50" height="50" relative="1" as="geometry">
            <mxPoint x="300" y="870" as="sourcePoint" />
            <mxPoint x="359" y="630" as="targetPoint" />
          </mxGeometry>
        </mxCell>
        <mxCell id="wVc57-GBdDfzJeNBVChu-12" value="&lt;font style=&quot;font-size: 24px;&quot; face=&quot;Verdana&quot; color=&quot;#6600cc&quot;&gt;phenotype&lt;/font&gt;" style="text;html=1;strokeColor=none;fillColor=none;align=center;verticalAlign=middle;whiteSpace=wrap;rounded=0;" vertex="1" parent="1">
          <mxGeometry x="550" y="560" width="215" height="30" as="geometry" />
        </mxCell>
        <mxCell id="wVc57-GBdDfzJeNBVChu-13" value="" style="endArrow=classic;html=1;rounded=0;strokeColor=#6600CC;entryX=0.5;entryY=0;entryDx=0;entryDy=0;exitX=0.5;exitY=1;exitDx=0;exitDy=0;" edge="1" parent="1" source="wVc57-GBdDfzJeNBVChu-12" target="wVc57-GBdDfzJeNBVChu-6">
          <mxGeometry width="50" height="50" relative="1" as="geometry">
            <mxPoint x="622.5" y="610" as="sourcePoint" />
            <mxPoint x="353.5" y="630" as="targetPoint" />
          </mxGeometry>
        </mxCell>
        <mxCell id="wVc57-GBdDfzJeNBVChu-14" value="" style="shape=image;html=1;verticalAlign=top;verticalLabelPosition=bottom;labelBackgroundColor=#ffffff;imageAspect=0;aspect=fixed;image=https://cdn2.iconfinder.com/data/icons/css-vol-2/24/math-equal-128.png" vertex="1" parent="1">
          <mxGeometry x="537.5" y="658" width="44" height="44" as="geometry" />
        </mxCell>
        <mxCell id="wVc57-GBdDfzJeNBVChu-15" value="&lt;font style=&quot;font-size: 36px;&quot; face=&quot;Verdana&quot;&gt;00010&lt;/font&gt;" style="text;html=1;strokeColor=default;fillColor=none;align=left;verticalAlign=middle;whiteSpace=wrap;rounded=0;" vertex="1" parent="1">
          <mxGeometry x="280" y="650" width="120" height="60" as="geometry" />
        </mxCell>
        <mxCell id="wVc57-GBdDfzJeNBVChu-16" value="&lt;font style=&quot;font-size: 36px;&quot; face=&quot;Verdana&quot;&gt;00011&lt;/font&gt;" style="text;html=1;strokeColor=default;fillColor=none;align=left;verticalAlign=middle;whiteSpace=wrap;rounded=0;" vertex="1" parent="1">
          <mxGeometry x="400" y="650" width="120" height="60" as="geometry" />
        </mxCell>
      </root>
    </mxGraphModel>
  </diagram>
</mxfile>
